<svg data-v-423bf9ae="" xmlns="http://www.w3.org/2000/svg" viewBox="0 0 601 90" class="iconLeft"><!----><!----><!----><g data-v-423bf9ae="" id="799f4404-b2ec-47fd-8445-ac6e7f890b4d" fill="black" transform="matrix(5.8365760270947415,0,0,5.8365760270947415,106.147855858251,-6.245136158813153)"><path d="M6.22 6.43L6.22 6.43L6.22 6.43Q7.11 6.43 7.54 7.03L7.54 7.03L7.54 7.03Q7.97 7.63 7.97 9.02L7.97 9.02L7.97 13.75L6.65 13.75L6.65 9.38L6.65 9.38Q6.65 8.51 6.50 8.13L6.50 8.13L6.50 8.13Q6.34 7.76 5.91 7.76L5.91 7.76L5.91 7.76Q5.46 7.76 5.23 8.20L5.23 8.20L5.23 8.20Q5.00 8.65 5.00 9.42L5.00 9.42L5.00 13.75L3.68 13.75L3.68 9.28L3.68 9.28Q3.68 7.76 2.94 7.76L2.94 7.76L2.94 7.76Q2.49 7.76 2.23 8.21L2.23 8.21L2.23 8.21Q1.97 8.67 1.97 9.42L1.97 9.42L1.97 13.75L0.66 13.75L0.66 6.59L1.89 6.59L1.89 7.53L1.89 7.53Q2.30 6.43 3.29 6.43L3.29 6.43L3.29 6.43Q3.79 6.43 4.14 6.74L4.14 6.74L4.14 6.74Q4.49 7.06 4.63 7.49L4.63 7.49L4.63 7.49Q5.22 6.43 6.22 6.43ZM12.43 13.92L12.43 13.92L12.43 13.92Q11.27 13.92 10.54 13.29L10.54 13.29L10.54 13.29Q9.81 12.67 9.81 11.52L9.81 11.52L9.81 11.52Q9.81 10.36 10.63 9.76L10.63 9.76L10.63 9.76Q11.45 9.16 12.61 9.16L12.61 9.16L12.61 9.16Q13.68 9.16 14.48 9.58L14.48 9.58L14.48 9.09L14.48 9.09Q14.48 7.64 13.02 7.64L13.02 7.64L13.02 7.64Q11.91 7.64 10.74 8.39L10.74 8.39L10.32 7.24L10.32 7.24Q11.59 6.43 13.15 6.43L13.15 6.43L13.15 6.43Q15.83 6.43 15.83 9.04L15.83 9.04L15.83 13.75L14.48 13.75L14.48 13.13L14.48 13.13Q13.66 13.92 12.43 13.92ZM12.66 12.68L12.66 12.68L12.66 12.68Q13.69 12.68 14.48 11.84L14.48 11.84L14.48 10.77L14.48 10.77Q13.73 10.35 12.82 10.35L12.82 10.35L12.82 10.35Q12.11 10.35 11.63 10.65L11.63 10.65L11.63 10.65Q11.16 10.95 11.16 11.52L11.16 11.52L11.16 11.52Q11.16 12.05 11.56 12.37L11.56 12.37L11.56 12.37Q11.96 12.68 12.66 12.68ZM21.94 6.43L21.94 6.43L21.94 6.43Q24.58 6.43 24.58 9.51L24.58 9.51L24.58 13.75L23.18 13.75L23.18 9.60L23.18 9.60Q23.18 7.74 21.62 7.74L21.62 7.74L21.62 7.74Q19.95 7.74 19.95 9.58L19.95 9.58L19.95 13.75L18.55 13.75L18.55 6.59L19.85 6.59L19.85 7.46L19.85 7.46Q20.12 7.00 20.68 6.71L20.68 6.71L20.68 6.71Q21.24 6.43 21.94 6.43ZM30.84 13.92L30.84 13.92L30.84 13.92Q28.88 13.92 28.88 12.04L28.88 12.04L28.88 7.83L27.31 7.83L27.31 6.59L28.88 6.59L28.88 4.31L30.28 3.64L30.28 6.59L32.69 6.59L32.69 7.83L30.28 7.83L30.28 11.70L30.28 11.70Q30.28 12.18 30.51 12.42L30.51 12.42L30.51 12.42Q30.73 12.66 31.30 12.66L31.30 12.66L31.30 12.66Q31.93 12.66 32.56 12.29L32.56 12.29L32.41 13.59L32.41 13.59Q31.79 13.92 30.84 13.92ZM42 9.84L42 9.84L42 9.84Q42 10.37 41.96 10.72L41.96 10.72L37.03 10.72L37.03 10.72Q37.18 11.62 37.68 12.14L37.68 12.14L37.68 12.14Q38.18 12.66 38.98 12.66L38.98 12.66L38.98 12.66Q39.91 12.66 40.60 12.01L40.60 12.01L41.43 12.91L41.43 12.91Q40.42 13.92 38.96 13.92L38.96 13.92L38.96 13.92Q37.41 13.92 36.51 12.87L36.51 12.87L36.51 12.87Q35.62 11.83 35.62 10.16L35.62 10.16L35.62 10.16Q35.62 8.41 36.52 7.42L36.52 7.42L36.52 7.42Q37.42 6.43 38.96 6.43L38.96 6.43L38.96 6.43Q40.29 6.43 41.15 7.29L41.15 7.29L41.15 7.29Q42 8.16 42 9.84ZM37.00 9.51L37.00 9.51L40.61 9.51L40.61 9.51Q40.57 8.55 40.10 8.11L40.10 8.11L40.10 8.11Q39.62 7.66 38.96 7.66L38.96 7.66L38.96 7.66Q38.09 7.66 37.60 8.14L37.60 8.14L37.60 8.14Q37.11 8.62 37.00 9.51ZM49.24 6.43L49.24 6.43L49.24 6.43Q50.23 6.43 50.86 6.79L50.86 6.79L50.86 9.35L49.49 9.35L49.49 7.77L49.49 7.77Q49.39 7.76 49.20 7.76L49.20 7.76L49.20 7.76Q48.12 7.76 47.44 8.29L47.44 8.29L47.44 8.29Q46.76 8.82 46.76 9.81L46.76 9.81L46.76 12.50L48.80 12.50L48.80 13.75L43.83 13.75L43.83 12.50L45.33 12.50L45.33 7.83L43.83 7.83L43.83 6.59L46.66 6.59L46.66 7.77L46.66 7.77Q47.00 7.15 47.72 6.79L47.72 6.79L47.72 6.79Q48.44 6.43 49.24 6.43ZM56.71 13.92L56.71 13.92L56.71 13.92Q54.75 13.92 54.75 12.04L54.75 12.04L54.75 7.83L53.19 7.83L53.19 6.59L54.75 6.59L54.75 4.31L56.15 3.64L56.15 6.59L58.56 6.59L58.56 7.83L56.15 7.83L56.15 11.70L56.15 11.70Q56.15 12.18 56.38 12.42L56.38 12.42L56.38 12.42Q56.60 12.66 57.18 12.66L57.18 12.66L57.18 12.66Q57.81 12.66 58.44 12.29L58.44 12.29L58.28 13.59L58.28 13.59Q57.67 13.92 56.71 13.92ZM65.40 5.19L65.40 5.19L65.40 5.19Q65.16 5.43 64.79 5.43L64.79 5.43L64.79 5.43Q64.43 5.43 64.18 5.18L64.18 5.18L64.18 5.18Q63.94 4.93 63.94 4.58L63.94 4.58L63.94 4.58Q63.94 4.23 64.18 3.98L64.18 3.98L64.18 3.98Q64.43 3.72 64.79 3.72L64.79 3.72L64.79 3.72Q65.16 3.72 65.40 3.97L65.40 3.97L65.40 3.97Q65.65 4.21 65.65 4.58L65.65 4.58L65.65 4.58Q65.65 4.94 65.40 5.19ZM65.49 6.59L65.49 12.50L67.47 12.50L67.47 13.75L62.12 13.75L62.12 12.50L64.09 12.50L64.09 7.83L62.12 7.83L62.12 6.59L65.49 6.59ZM72.97 13.92L72.97 13.92L72.97 13.92Q70.28 13.92 70.28 10.78L70.28 10.78L70.28 6.59L71.69 6.59L71.69 10.68L71.69 10.68Q71.69 11.68 72.12 12.13L72.12 12.13L72.12 12.13Q72.55 12.59 73.25 12.59L73.25 12.59L73.25 12.59Q74.91 12.59 74.91 10.71L74.91 10.71L74.91 6.59L76.33 6.59L76.33 13.75L74.91 13.75L74.91 13.05L74.91 13.05Q74.24 13.92 72.97 13.92ZM81.93 13.92L81.93 13.92L81.93 13.92Q81.07 13.92 80.34 13.57L80.34 13.57L80.34 13.57Q79.60 13.23 79.14 12.64L79.14 12.64L80.08 11.82L80.08 11.82Q80.92 12.71 82.03 12.71L82.03 12.71L82.03 12.71Q82.59 12.71 82.94 12.50L82.94 12.50L82.94 12.50Q83.30 12.28 83.30 11.87L83.30 11.87L83.30 11.87Q83.30 11.30 81.72 10.65L81.72 10.65L81.72 10.65Q81.69 10.64 81.68 10.63L81.68 10.63L81.68 10.63Q81.66 10.63 81.63 10.61L81.63 10.61L81.63 10.61Q81.61 10.60 81.58 10.59L81.58 10.59L81.58 10.59Q81.56 10.58 81.54 10.57L81.54 10.57L81.54 10.57Q80.93 10.32 80.61 10.16L80.61 10.16L80.61 10.16Q80.29 10.00 79.93 9.73L79.93 9.73L79.93 9.73Q79.56 9.46 79.40 9.13L79.40 9.13L79.40 9.13Q79.24 8.79 79.24 8.34L79.24 8.34L79.24 8.34Q79.24 7.46 79.99 6.94L79.99 6.94L79.99 6.94Q80.74 6.43 81.89 6.43L81.89 6.43L81.89 6.43Q83.48 6.43 84.46 7.55L84.46 7.55L83.54 8.32L83.54 8.32Q82.77 7.63 81.83 7.63L81.83 7.63L81.83 7.63Q81.26 7.63 80.91 7.83L80.91 7.83L80.91 7.83Q80.56 8.02 80.56 8.36L80.56 8.36L80.56 8.36Q80.56 8.85 82.10 9.45L82.10 9.45L82.10 9.45Q82.15 9.48 82.18 9.49L82.18 9.49L82.18 9.49Q82.68 9.69 82.91 9.79L82.91 9.79L82.91 9.79Q83.13 9.88 83.53 10.11L83.53 10.11L83.53 10.11Q83.93 10.33 84.12 10.54L84.12 10.54L84.12 10.54Q84.31 10.75 84.46 11.10L84.46 11.10L84.46 11.10Q84.62 11.44 84.62 11.84L84.62 11.84L84.62 11.84Q84.62 12.81 83.89 13.36L83.89 13.36L83.89 13.36Q83.16 13.92 81.93 13.92Z"></path></g><!----><g data-v-423bf9ae="" id="5fa0bf55-6b0e-4d0a-be5b-ecd2f0c0ce4e" transform="matrix(2.8125,0,0,2.8125,0,0)" stroke="none" fill="black"><path d="M15.965 16.258l.707-.707 10.39 10.39-.707.707z"></path><path d="M4.935 26.357L26.018 5.274l.707.707L5.642 27.065z"></path><path d="M31 1v4.194h-4.194V1H31m1-1h-6.194v6.194H32V0zM31 26.806V31h-4.194v-4.194H31m1-1h-6.194V32H32v-6.194zM5.194 26.806V31H1v-4.194h4.194m1-1H0V32h6.194v-6.194z"></path></g><!----></svg>